<svg version="1.1" xmlns="http://www.w3.org/2000/svg" viewBox="0 0 1108.0886374682188 536.8333740234375" width="1108.0886374682188" height="536.8333740234375">
  <!-- svg-source:excalidraw -->
  
  <defs>
    <style>
      @font-face {
        font-family: "Virgil";
        src: url("https://excalidraw.com/Virgil.woff2");
      }
      @font-face {
        font-family: "Cascadia";
        src: url("https://excalidraw.com/Cascadia.woff2");
      }
    </style>
  </defs>
  <rect x="0" y="0" width="1108.0886374682188" height="536.8333740234375" fill="#ffffff"></rect><g transform="translate(18.2553244799376 10) rotate(0 59.5 22.5)"><text x="0" y="32" font-family="Virgil, Segoe UI Emoji" font-size="36px" fill="#000000" text-anchor="start" style="white-space: pre;" direction="ltr">Models</text></g><g stroke-linecap="round" transform="translate(10.921889421343849 95.50001525878906) rotate(0 108.33334350585938 82.66666412353516)"><path d="M-0.53 0.44 C84.99 1.32, 169.22 0.92, 217.13 -1.44 M-0.86 -0.86 C46.47 1.19, 90.87 0.95, 217.4 0.78 M216.97 0.08 C218.49 34.34, 216.52 69.12, 218.62 165.62 M216.8 0.15 C217.31 53.07, 217.49 104.19, 216.01 165.12 M216.98 165.14 C132.31 163.64, 52 163.64, -0.33 166.15 M216.67 165.35 C150.56 163.71, 85.51 165.03, 0.86 165.73 M-0.15 163.38 C-2.16 128.93, -2.81 92.19, -0.76 -0.8 M0.36 164.91 C1.39 107.41, 0.75 48.64, 0.09 -0.7" stroke="#c92a2a" stroke-width="1" fill="none"></path></g><g stroke-linecap="round"><g transform="translate(10.255263444781349 139.50003051757812) rotate(0 109.99329798519614 -0.907852095742669)"><path d="M-0.26 -0.22 C36.25 -0.27, 183.38 -0.08, 220.24 -0.02 M1.81 -1.38 C38.08 -1.8, 182.95 -1.73, 219.42 -1.8" stroke="#c92a2a" stroke-width="1" fill="none"></path></g></g><g transform="translate(18.25526344478135 108.83334350585938) rotate(0 29 12.5)"><text x="0" y="18" font-family="Virgil, Segoe UI Emoji" font-size="20px" fill="#c92a2a" text-anchor="start" style="white-space: pre;" direction="ltr">Space</text></g><g transform="translate(18.25526344478135 145.83334350585938) rotate(0 85.5 38)"><text x="0" y="18.333333333333332" font-family="Virgil, Segoe UI Emoji" font-size="20px" fill="#c92a2a" text-anchor="start" style="white-space: pre;" direction="ltr">- name</text><text x="0" y="43.666666666666664" font-family="Virgil, Segoe UI Emoji" font-size="20px" fill="#c92a2a" text-anchor="start" style="white-space: pre;" direction="ltr">- capacity</text><text x="0" y="69" font-family="Virgil, Segoe UI Emoji" font-size="20px" fill="#c92a2a" text-anchor="start" style="white-space: pre;" direction="ltr">- is_refrigerated</text></g><g stroke-linecap="round" transform="translate(308.92201149165635 93.5) rotate(0 105.66668701171875 86.33334350585938)"><path d="M1.75 -1.51 C56.2 -0.49, 114.72 0.81, 209.81 -1.47 M-0.6 -0.1 C77.04 -1.5, 152.94 -1.16, 210.92 0.08 M212.85 1.24 C209.3 56.31, 210.42 109.4, 210.29 171.27 M210.58 -0.03 C212.99 55.63, 213.61 112.24, 211.87 172.05 M211.85 172.79 C151.03 173.17, 92.59 175.38, 1.2 173.29 M210.72 173.44 C136.36 175.16, 60.97 174.48, -0.6 172.8 M-0.29 171.04 C0.6 120.75, 1.28 67.91, -0.11 -1.14 M-0.56 173.21 C0.84 113.22, -0.02 51, -0.99 0.75" stroke="#5c940d" stroke-width="1" fill="none"></path></g><g stroke-linecap="round"><g transform="translate(308.2553244799376 135.5) rotate(0 105.90697743893145 -0.5248800018522957)"><path d="M0.6 -0.15 C36.03 -0.13, 177.24 -0.77, 212.35 -0.86 M-0.54 -1.27 C34.83 -1.04, 176.77 -0.03, 211.94 0.22" stroke="#5c940d" stroke-width="1" fill="none"></path></g></g><g transform="translate(318.2553244799376 105.16668701171875) rotate(0 52 12.5)"><text x="0" y="18" font-family="Virgil, Segoe UI Emoji" font-size="20px" fill="#5c940d" text-anchor="start" style="white-space: pre;" direction="ltr">Item Type</text></g><g transform="translate(316.2553244799376 143.16668701171875) rotate(0 72.5 25.5)"><text x="0" y="17.5" font-family="Virgil, Segoe UI Emoji" font-size="20px" fill="#5c940d" text-anchor="start" style="white-space: pre;" direction="ltr">- name</text><text x="0" y="43" font-family="Virgil, Segoe UI Emoji" font-size="20px" fill="#5c940d" text-anchor="start" style="white-space: pre;" direction="ltr">- needs_fridge</text></g><g stroke-linecap="round" transform="translate(162.92201149165635 385.5) rotate(0 103.33334350585938 70.66668701171875)"><path d="M-1.01 1.26 C66.85 -0.04, 133.42 -0.79, 205.78 1.71 M-0.63 -0.67 C70.08 2.19, 138.5 1.05, 206.95 -0.69 M206.97 0.26 C209.14 51.17, 207.2 103.53, 206.06 142.45 M206.88 0.38 C204.97 52.76, 204.67 104.82, 205.86 140.89 M208.33 140.31 C135.9 141.78, 66.61 140.81, -0.07 140.99 M206.47 142.06 C131.7 142.39, 57.78 142.1, 0.82 141.24 M0.67 140.17 C1.68 109.21, -1.33 75.94, -1.99 -1.99 M0.68 141.01 C1.2 108.87, 0.14 75.89, -0.1 0.02" stroke="#364fc7" stroke-width="1" fill="none"></path></g><g stroke-linecap="round"><g transform="translate(161.5886985033751 424.8333740234375) rotate(0 107.4793522422109 0.2842753820290227)"><path d="M1.11 -0.13 C36.67 0.04, 177.22 0.09, 212.47 0.17 M0.23 -1.24 C36.25 -0.78, 178.92 1.89, 214.73 1.8" stroke="#364fc7" stroke-width="1" fill="none"></path></g></g><g transform="translate(170.92201149165635 396.5) rotate(0 24 12.5)"><text x="0" y="18" font-family="Virgil, Segoe UI Emoji" font-size="20px" fill="#364fc7" text-anchor="start" style="white-space: pre;" direction="ltr">Item</text></g><g transform="translate(168.92201149165635 429.16668701171875) rotate(0 84 38)"><text x="0" y="18.333333333333332" font-family="Virgil, Segoe UI Emoji" font-size="20px" fill="#364fc7" text-anchor="start" style="white-space: pre;" direction="ltr">- item_type</text><text x="0" y="43.666666666666664" font-family="Virgil, Segoe UI Emoji" font-size="20px" fill="#364fc7" text-anchor="start" style="white-space: pre;" direction="ltr">- expiry</text><text x="0" y="69" font-family="Virgil, Segoe UI Emoji" font-size="20px" fill="#364fc7" text-anchor="start" style="white-space: pre;" direction="ltr">- storage_space</text></g><g stroke-linecap="round"><g transform="translate(296.92201149165635 372.8333740234375) rotate(0 45.52230666399464 -45.87881165296767)"><path d="M-0.11 -0.77 C15.15 -16.13, 77.45 -76.19, 92.67 -91.62 M-1.62 1.44 C13.43 -14.28, 76.2 -77.55, 92.07 -93.2" stroke="#000000" stroke-width="1" fill="none"></path></g><g transform="translate(296.92201149165635 372.8333740234375) rotate(0 45.52230666399464 -45.87881165296767)"><path d="M78.09 -64.91 C86.01 -78.15, 88.1 -86.08, 93.29 -91.71 M78.43 -65.22 C82.81 -74.61, 86.67 -82.46, 92.58 -93.87" stroke="#000000" stroke-width="1" fill="none"></path></g><g transform="translate(296.92201149165635 372.8333740234375) rotate(0 45.52230666399464 -45.87881165296767)"><path d="M63.59 -79.42 C77.3 -86.92, 85.12 -89.11, 93.29 -91.71 M63.93 -79.73 C72.81 -84.66, 81.17 -87.99, 92.58 -93.87" stroke="#000000" stroke-width="1" fill="none"></path></g></g><g transform="translate(347.5886985033751 323.16668701171875) rotate(0 44.5 12.5)"><text x="0" y="18" font-family="Virgil, Segoe UI Emoji" font-size="20px" fill="#000000" text-anchor="start" style="white-space: pre;" direction="ltr">Has type</text></g><g stroke-linecap="round"><g transform="translate(224.2553244799376 371.5) rotate(0 -52.40814979374409 -46.88506538629997)"><path d="M1.04 1.16 C-16.58 -14.15, -88.24 -77.09, -105.86 -92.99 M0.13 0.73 C-17.14 -14.87, -86.17 -79.24, -103.77 -94.93" stroke="#000000" stroke-width="1" fill="none"></path></g><g transform="translate(224.2553244799376 371.5) rotate(0 -52.40814979374409 -46.88506538629997)"><path d="M-74.11 -85.47 C-83.45 -86.61, -93.62 -88.05, -105.4 -96.51 M-75.2 -83.61 C-83.07 -86.63, -91.01 -89.14, -103.2 -94.28" stroke="#000000" stroke-width="1" fill="none"></path></g><g transform="translate(224.2553244799376 371.5) rotate(0 -52.40814979374409 -46.88506538629997)"><path d="M-87.96 -70.32 C-93.12 -76, -99.25 -81.86, -105.4 -96.51 M-89.05 -68.47 C-92.84 -75.91, -96.81 -82.75, -103.2 -94.28" stroke="#000000" stroke-width="1" fill="none"></path></g></g><g transform="translate(168.9219504565001 299.16668701171875) rotate(0 57.5 12.5)"><text x="0" y="18" font-family="Virgil, Segoe UI Emoji" font-size="20px" fill="#000000" text-anchor="start" style="white-space: pre;" direction="ltr">Assigned to</text></g><g transform="translate(598.0885764330626 11.666717529296875) rotate(0 103 22.5)"><text x="0" y="32" font-family="Virgil, Segoe UI Emoji" font-size="36px" fill="#000000" text-anchor="start" style="white-space: pre;" direction="ltr">Constraints</text></g><g transform="translate(600.9219504565001 78.16671752929688) rotate(0 58.5 17.5)"><text x="0" y="25" font-family="Virgil, Segoe UI Emoji" font-size="28px" fill="#c92a2a" text-anchor="start" style="white-space: pre;" direction="ltr">Storage:</text></g><g transform="translate(600.2553244799376 124.00006103515625) rotate(0 236.5 12.5)"><text x="0" y="18" font-family="Virgil, Segoe UI Emoji" font-size="20px" fill="#c92a2a" text-anchor="start" style="white-space: pre;" direction="ltr">- Can only be deleted if no items are assigned </text></g><g transform="translate(597.0886374682188 169.4167022705078) rotate(0 76 17.5)"><text x="0" y="25" font-family="Virgil, Segoe UI Emoji" font-size="28px" fill="#5c940d" text-anchor="start" style="white-space: pre;" direction="ltr">Item Type:</text></g><g transform="translate(596.4220114916563 215.2500457763672) rotate(0 240.5 12.5)"><text x="0" y="18" font-family="Virgil, Segoe UI Emoji" font-size="20px" fill="#5c940d" text-anchor="start" style="white-space: pre;" direction="ltr">- Can only be deleted if no items have this type</text></g><g transform="translate(595.7552634447813 264.08338928222656) rotate(0 36.5 17.5)"><text x="0" y="25" font-family="Virgil, Segoe UI Emoji" font-size="28px" fill="#364fc7" text-anchor="start" style="white-space: pre;" direction="ltr">Item:</text></g><g transform="translate(595.0886374682188 309.91673278808594) rotate(0 251.5 63.5)"><text x="0" y="17.4" font-family="Virgil, Segoe UI Emoji" font-size="20px" fill="#364fc7" text-anchor="start" style="white-space: pre;" direction="ltr">- Can only be assigned to a storage space that </text><text x="0" y="42.8" font-family="Virgil, Segoe UI Emoji" font-size="20px" fill="#364fc7" text-anchor="start" style="white-space: pre;" direction="ltr">matches refrigeration requirements, and is not at </text><text x="0" y="68.19999999999999" font-family="Virgil, Segoe UI Emoji" font-size="20px" fill="#364fc7" text-anchor="start" style="white-space: pre;" direction="ltr">max capacity.</text><text x="0" y="93.6" font-family="Virgil, Segoe UI Emoji" font-size="20px" fill="#364fc7" text-anchor="start" style="white-space: pre;" direction="ltr">- Expiry date has to be in the future.</text><text x="0" y="119" font-family="Virgil, Segoe UI Emoji" font-size="20px" fill="#364fc7" text-anchor="start" style="white-space: pre;" direction="ltr">- Cannot change item type or expiry date.</text></g></svg>